<?xml version="1.0" encoding="iso-8859-1"?>
<!-- Uploaded to: SVG Repo, www.svgrepo.com, Generator: SVG Repo Mixer Tools -->
<svg fill="#000000" height="800px" width="800px" version="1.1" id="Layer_1" xmlns="http://www.w3.org/2000/svg" xmlns:xlink="http://www.w3.org/1999/xlink" 
	 viewBox="0 0 328.469 328.469" xml:space="preserve">
<path id="XMLID_918_" d="M313.469,178.567h-26.9h-125v-30h15c8.284,0,15-6.716,15-15c0-8.284-6.716-15-15-15H61.74L28.862,39.184
	c-3.17-7.654-11.944-11.29-19.599-8.119C1.61,34.236-2.024,43.01,1.146,50.664l35.955,86.811c0.342,1.267,0.84,2.465,1.481,3.575
	l22.986,55.5v86.999c0,8.284,6.716,15,15,15c8.284,0,15-6.716,15-15v-74.982h180v74.982c0,8.284,6.716,15,15,15
	c8.284,0,15-6.716,15-15v-74.982h11.9c8.284,0,15-6.716,15-15C328.469,185.282,321.753,178.567,313.469,178.567z M131.568,148.567
	v30H86.592l-12.426-30H131.568z"/>
</svg>