<?xml version="1.0" encoding="utf-8"?>

<!DOCTYPE svg PUBLIC "-//W3C//DTD SVG 1.1//EN" "http://www.w3.org/Graphics/SVG/1.1/DTD/svg11.dtd">
<!-- Uploaded to: SVG Repo, www.svgrepo.com, Generator: SVG Repo Mixer Tools -->
<svg height="800px" width="800px" version="1.1" id="_x32_" xmlns="http://www.w3.org/2000/svg" xmlns:xlink="http://www.w3.org/1999/xlink" 
	 viewBox="0 0 512 512"  xml:space="preserve">
<style type="text/css">
	.st0{fill:#000000;}
</style>
<g>
	<path class="st0" d="M474.828,156.693H460.18v-25.402c0-36.184-29.321-65.505-65.518-65.512h-277.33
		C81.14,65.786,51.82,95.107,51.82,131.291v25.402H37.169C16.637,156.7,0.004,173.33,0,193.873v165.6
		c0.004,20.536,16.637,37.158,37.169,37.172h17.398l3.989,49.576h54.651l3.985-49.576h277.624l3.986,49.576h54.65l3.979-49.576
		h17.398c20.53-0.014,37.16-16.636,37.172-37.172v-165.6C511.993,173.33,495.357,156.7,474.828,156.693z M73.584,131.291
		c0.006-12.116,4.88-22.986,12.815-30.93c7.951-7.931,18.823-12.811,30.934-12.811h277.33c12.117,0,22.992,4.88,30.937,12.811
		c7.938,7.944,12.811,18.814,12.818,30.93v30.99c-10.362,6.483-17.264,17.945-17.278,31.07v108.8H90.858v-108.8
		c-0.007-13.125-6.909-24.587-17.274-31.07V131.291z M93.118,424.45H78.644l-2.237-27.805h3.565h15.385L93.118,424.45z
		 M433.356,424.45h-14.474l-2.229-27.805h15.368h3.578L433.356,424.45z M490.23,359.473c-0.007,4.286-1.703,8.064-4.514,10.895
		c-2.824,2.804-6.602,4.5-10.889,4.506h-42.806H79.972H37.169c-4.286-0.007-8.065-1.702-10.889-4.506
		c-2.804-2.831-4.503-6.609-4.509-10.895v-165.6c0.006-4.293,1.706-8.078,4.509-10.902c2.817-2.798,6.602-4.5,10.889-4.506H54.2
		c4.152,0.007,7.797,1.649,10.534,4.36c2.707,2.737,4.35,6.382,4.356,10.528v130.564h373.82V193.351
		c0.007-4.146,1.649-7.79,4.359-10.528c2.73-2.711,6.382-4.353,10.528-4.36h17.03c4.286,0.007,8.065,1.709,10.889,4.513
		c2.81,2.824,4.507,6.602,4.514,10.895V359.473z"/>
</g>
</svg>