<?xml version="1.0" encoding="iso-8859-1"?>
<!-- Uploaded to: SVG Repo, www.svgrepo.com, Generator: SVG Repo Mixer Tools -->
<svg fill="#000000" height="800px" width="800px" version="1.1" id="Layer_1" xmlns="http://www.w3.org/2000/svg" xmlns:xlink="http://www.w3.org/1999/xlink" 
	 viewBox="0 0 512 512" xml:space="preserve">
<g>
	<g>
		<path d="M466.337,422.534l-87.464-312.819h45.169c17.385,0,31.208-14.77,31.208-32.154v-4.967C455.251,32.308,422.797,0,382.512,0
			H129.488C89.203,0,56.749,32.308,56.749,72.593v4.967c0,17.384,13.823,32.154,31.208,32.154h45.17L45.663,422.534
			c-2.811,10.062,3.068,20.34,13.13,23.151c1.702,0.475,3.414,0.624,5.099,0.624c8.274,0,15.873-5.512,18.209-13.872l44.09-157.869
			c1.198,0.237,2.434,0.348,3.701,0.348h107.192v218.167c0,10.447,8.469,18.916,18.916,18.916c10.447,0,18.916-8.469,18.916-18.916
			V274.916h105.931c1.691,0,3.322-0.243,4.88-0.66l44.171,158.141c2.336,8.36,9.934,13.833,18.209,13.833
			c1.685,0,3.397-0.071,5.099-0.546C463.269,442.874,469.148,432.596,466.337,422.534z M237.084,237.084H136.655l35.752-127.369
			h64.677V237.084z M94.287,71.882c0.705-18.916,16.225-34.049,35.201-34.049h253.024c18.976,0,34.496,15.133,35.202,34.049H94.287z
			 M274.916,237.084V109.714h64.677l35.752,127.369H274.916z"/>
	</g>
</g>
</svg>